<svg width="24" height="24" viewBox="0 0 24 24" fill="none" xmlns="http://www.w3.org/2000/svg">
<path d="M3 12C3 7.02944 7.02944 3 12 3C16.9706 3 21 7.02944 21 12C21 16.9706 16.9706 21 12 21C7.02944 21 3 16.9706 3 12ZM14 9.5C14 10.3284 14.6716 11 15.5 11C16.3284 11 17 10.3284 17 9.5C17 8.67157 16.3284 8 15.5 8C14.6716 8 14 8.67157 14 9.5ZM8.22168 12.8037C7.83715 12.9575 7.65 13.3938 7.80371 13.7783V13.7803L7.80469 13.7812L7.80664 13.7852C7.80774 13.7878 7.80898 13.7912 7.81055 13.7949C7.81385 13.8029 7.81785 13.8137 7.82324 13.8262C7.8341 13.8512 7.8496 13.8853 7.86914 13.9268C7.90842 14.0101 7.96629 14.1254 8.04297 14.2607C8.19551 14.5299 8.42892 14.8898 8.75488 15.252C9.40817 15.9778 10.4711 16.75 12 16.75C13.5289 16.75 14.5918 15.9778 15.2451 15.252C15.5711 14.8898 15.8045 14.5299 15.957 14.2607C16.0337 14.1254 16.0916 14.0101 16.1309 13.9268C16.1504 13.8853 16.1659 13.8512 16.1768 13.8262C16.1822 13.8137 16.1861 13.8029 16.1895 13.7949C16.191 13.7912 16.1923 13.7878 16.1934 13.7852L16.1953 13.7812L16.1963 13.7803V13.7783C16.35 13.3938 16.1628 12.9575 15.7783 12.8037C15.3947 12.6504 14.9595 12.836 14.8047 13.2188L14.7998 13.2295C14.7948 13.241 14.786 13.2615 14.7734 13.2881C14.7483 13.3414 14.7082 13.422 14.6523 13.5205C14.5393 13.7201 14.3662 13.9854 14.1299 14.248C13.6582 14.7722 12.971 15.25 12 15.25C11.029 15.25 10.3418 14.7722 9.87012 14.248C9.63377 13.9854 9.46074 13.7201 9.34766 13.5205C9.29183 13.422 9.25173 13.3414 9.22656 13.2881C9.21401 13.2615 9.20516 13.241 9.2002 13.2295C9.19789 13.2242 9.19531 13.2188 9.19531 13.2188C9.04054 12.836 8.60533 12.6504 8.22168 12.8037ZM7 9.5C7 10.3284 7.67157 11 8.5 11C9.32843 11 10 10.3284 10 9.5C10 8.67157 9.32843 8 8.5 8C7.67157 8 7 8.67157 7 9.5Z" fill="black"/>
</svg>
