<svg width="24" height="24" viewBox="0 0 24 24" fill="none" xmlns="http://www.w3.org/2000/svg">
<path d="M5.63603 5.63604C6.22181 5.05025 7.17156 5.05025 7.75735 5.63604L12 9.87868L16.2426 5.63604C16.8284 5.05025 17.7782 5.05025 18.3639 5.63604C18.9497 6.22183 18.9497 7.17157 18.3639 7.75736L14.1213 12L18.3639 16.2426C18.9497 16.8284 18.9497 17.7782 18.3639 18.364C17.7782 18.9497 16.8284 18.9497 16.2426 18.364L12 14.1213L7.75735 18.364C7.17156 18.9497 6.22181 18.9497 5.63603 18.364C5.05024 17.7782 5.05024 16.8284 5.63603 16.2426L9.87867 12L5.63603 7.75736C5.05024 7.17157 5.05024 6.22183 5.63603 5.63604Z" fill="black"/>
</svg>
