<svg width="24" height="24" viewBox="0 0 24 24" fill="none" xmlns="http://www.w3.org/2000/svg">
<path d="M12 3C15.7495 3 17.6242 3.00032 18.9385 3.95508C19.363 4.26348 19.7365 4.63705 20.0449 5.06152C20.9997 6.37584 21 8.25047 21 12C21 15.7495 20.9997 17.6242 20.0449 18.9385C19.7365 19.363 19.363 19.7365 18.9385 20.0449C17.6242 20.9997 15.7495 21 12 21C8.25047 21 6.37584 20.9997 5.06152 20.0449C4.63705 19.7365 4.26348 19.363 3.95508 18.9385C3.00032 17.6242 3 15.7495 3 12C3 8.25047 3.00032 6.37584 3.95508 5.06152C4.26348 4.63705 4.63705 4.26348 5.06152 3.95508C6.37584 3.00032 8.25047 3 12 3ZM15.7695 11C15.0302 11.0001 14.3473 11.4129 13.9805 12.0811L13.0566 13.7646C12.7156 14.3858 12.08 14.7695 11.3926 14.7695C10.7898 14.7694 10.222 14.4736 9.86035 13.9717L9.43555 13.3818C9.08789 12.8994 8.5423 12.6153 7.96289 12.6152C7.01707 12.6152 6.22504 13.3613 6.13086 14.3408L6.06348 15.04C6.01119 15.5843 5.98517 15.8567 6.00879 16.0811C6.10623 17.0054 6.76267 17.7603 7.63672 17.9531C7.84885 17.9999 8.11203 18 8.6377 18H14.5645C15.8584 18 16.5054 17.9998 16.9795 17.7207C17.3534 17.5005 17.6527 17.1647 17.835 16.7598C18.066 16.2463 18.0163 15.5745 17.917 14.2314L17.8242 12.9805C17.7416 11.8631 16.8463 11 15.7695 11ZM16 5.5C14.8954 5.5 14 6.39543 14 7.5C14 8.60457 14.8954 9.5 16 9.5C17.1046 9.5 18 8.60457 18 7.5C18 6.39543 17.1046 5.5 16 5.5Z" fill="black"/>
</svg>
