<svg width="24" height="24" viewBox="0 0 24 24" fill="none" xmlns="http://www.w3.org/2000/svg">
<path d="M12.6337 4C13.7303 4 14.279 3.99965 14.7626 4.19196C15.0154 4.29254 15.2529 4.43148 15.4668 4.60268C15.8758 4.93018 16.1622 5.42165 16.7352 6.40402C16.8339 6.57311 16.884 6.65778 16.9512 6.71763C17.0067 6.76695 17.0714 6.80455 17.1411 6.82812C17.2256 6.85674 17.3202 6.85714 17.5089 6.85714L18.5679 6.86272C19.4964 6.87813 20.0601 6.93981 20.5156 7.18638C21.0124 7.45536 21.4184 7.87292 21.6799 8.38393C21.9995 9.00863 22 9.83119 22 11.4766V14.2857C22 16.9795 21.9998 18.3261 21.1862 19.1629C20.3726 19.9998 19.0634 20 16.4444 20H7.55556C4.93664 20 3.62739 19.9998 2.8138 19.1629C2.00021 18.3261 2 16.9795 2 14.2857V11.4766C2 9.83119 2.00049 9.00863 2.3201 8.38393C2.5816 7.87292 2.98756 7.45536 3.48438 7.18638C4.09173 6.85765 4.89143 6.85714 6.4911 6.85714C6.67982 6.85714 6.77437 6.85674 6.85894 6.82812C6.9286 6.80455 6.99334 6.76695 7.04883 6.71763C7.11603 6.65778 7.16612 6.57311 7.26476 6.40402C7.8378 5.42165 8.12423 4.93018 8.5332 4.60268C8.7471 4.43148 8.98464 4.29254 9.23741 4.19196C9.72096 3.99965 10.2697 4 11.3663 4H12.6337ZM12 8.57143C9.5454 8.57143 7.55556 10.6181 7.55556 13.1429C7.55556 15.6676 9.5454 17.7143 12 17.7143C14.4546 17.7143 16.4444 15.6676 16.4444 13.1429C16.4444 10.6181 14.4546 8.57143 12 8.57143ZM12 10.2857C13.5341 10.2857 14.7778 11.5649 14.7778 13.1429C14.7778 14.7208 13.5341 16 12 16C10.4659 16 9.22222 14.7208 9.22222 13.1429C9.22222 11.5649 10.4659 10.2857 12 10.2857ZM18.6667 9.71429C18.053 9.71429 17.5556 10.226 17.5556 10.8571C17.5556 11.4883 18.053 12 18.6667 12C19.2803 12 19.7778 11.4883 19.7778 10.8571C19.7778 10.226 19.2803 9.71429 18.6667 9.71429Z" fill="black"/>
</svg>
