<svg width="24" height="24" viewBox="0 0 24 24" fill="none" xmlns="http://www.w3.org/2000/svg">
<path fill-rule="evenodd" clip-rule="evenodd" d="M5 13.9998C3.89543 13.9998 3 13.1044 3 11.9998C3 10.8953 3.89543 9.99985 5 9.99985C6.10457 9.99985 7 10.8953 7 11.9998C7 13.1044 6.10457 13.9998 5 13.9998ZM12 13.9998C10.8954 13.9998 10 13.1044 10 11.9998C10 10.8953 10.8954 9.99985 12 9.99985C13.1046 9.99985 14 10.8953 14 11.9998C14 13.1044 13.1046 13.9998 12 13.9998ZM17 11.9998C17 13.1044 17.8954 13.9998 19 13.9998C20.1046 13.9998 21 13.1044 21 11.9998C21 10.8953 20.1046 9.99985 19 9.99985C17.8954 9.99985 17 10.8953 17 11.9998Z" fill="black"/>
</svg>
