<svg width="24" height="24" viewBox="0 0 24 24" fill="none" xmlns="http://www.w3.org/2000/svg">
<path d="M14.5 4C15.3284 4 16 4.67157 16 5.5V18.5C16 19.3284 15.3284 20 14.5 20C13.6716 20 13 19.3284 13 18.5V5.5C13 4.67157 13.6716 4 14.5 4Z" fill="black"/>
<path d="M9.5 7C10.3284 7 11 7.67157 11 8.5V15.5C11 16.3284 10.3284 17 9.5 17C8.67157 17 8 16.3284 8 15.5V8.5C8 7.67157 8.67157 7 9.5 7Z" fill="black"/>
<path d="M19.5 8C20.3284 8 21 8.67157 21 9.5V14.5C21 15.3284 20.3284 16 19.5 16C18.6716 16 18 15.3284 18 14.5V9.5C18 8.67157 18.6716 8 19.5 8Z" fill="black"/>
<path d="M4.5 9C5.32843 9 6 9.67157 6 10.5V13.5C6 14.3284 5.32843 15 4.5 15C3.67157 15 3 14.3284 3 13.5V10.5C3 9.67157 3.67157 9 4.5 9Z" fill="black"/>
</svg>
