<svg width="24" height="24" viewBox="0 0 24 24" fill="none" xmlns="http://www.w3.org/2000/svg">
<path d="M8.597 8.15245C10.0365 5.08459 10.7562 3.55066 11.9187 3.50171C11.9729 3.49943 12.0271 3.49943 12.0813 3.50171C13.2438 3.55066 13.9635 5.08459 15.403 8.15245C18.7769 8.5457 20.4639 8.74232 20.8847 9.79148C20.9154 9.86791 20.941 9.94625 20.9613 10.026C21.2409 11.1204 19.996 12.2521 17.5062 14.5156C18.1711 17.8051 18.5035 19.4499 17.6144 20.1704C17.5596 20.2147 17.5024 20.256 17.4431 20.2941C16.4788 20.9127 14.9859 20.0912 12 18.4482C9.01413 20.0912 7.5212 20.9127 6.55693 20.2941C6.49755 20.256 6.44036 20.2147 6.38561 20.1704C5.49648 19.4499 5.82893 17.8051 6.49384 14.5156C4.00403 12.2521 2.75912 11.1204 3.03866 10.026C3.05903 9.94624 3.08463 9.86791 3.11529 9.79148C3.53612 8.74232 5.22308 8.5457 8.597 8.15245Z" fill="black"/>
</svg>
