<svg width="24" height="24" viewBox="0 0 24 24" fill="none" xmlns="http://www.w3.org/2000/svg">
<path d="M11.2758 6.49422C15.3537 5.13465 17.3927 4.45487 18.4689 5.53108C19.5451 6.60729 18.8653 8.64627 17.5058 12.7242L15.6616 18.2556C15.363 19.1514 15.2137 19.5993 15.054 19.8521C14.2187 21.1745 12.3784 21.3936 11.2563 20.3042C11.0418 20.096 10.7916 19.6956 10.2912 18.895C10.123 18.6258 10.0389 18.4913 9.97634 18.3581C9.66468 17.6947 9.66473 16.9269 9.97648 16.2635C10.0391 16.1303 10.1232 15.9957 10.2914 15.7266L13.6553 10.3447L8.27343 13.7086C8.00428 13.8768 7.8697 13.9609 7.73651 14.0235C7.07308 14.3353 6.3053 14.3353 5.64191 14.0237C5.50873 13.9611 5.37416 13.877 5.10503 13.7088C4.30437 13.2084 3.90404 12.9582 3.69581 12.7437C2.60643 11.6216 2.82551 9.78132 4.14793 8.94599C4.4007 8.78632 4.84859 8.637 5.74437 8.33835L11.2758 6.49422Z" fill="black"/>
</svg>
