<svg width="24" height="24" viewBox="0 0 24 24" fill="none" xmlns="http://www.w3.org/2000/svg">
<path d="M10.25 7C10.25 7.92161 10.2486 8.6887 10.3301 9.29492C10.4145 9.92253 10.6003 10.489 11.0557 10.9443C11.511 11.3997 12.0775 11.5855 12.7051 11.6699C13.3113 11.7514 14.0784 11.75 15 11.75H19V15C19 17.8284 18.9998 19.2424 18.1211 20.1211C17.2424 20.9998 15.8284 21 13 21H11C8.17157 21 6.75759 20.9998 5.87891 20.1211C5.00023 19.2424 5 17.8284 5 15V8.65723C5 6.16096 5.00034 4.91205 5.69727 4.07715C5.81228 3.93941 5.93941 3.81228 6.07715 3.69727C6.86541 3.03928 8.02241 3.00205 10.25 3V7ZM11.75 3.01562C12.1778 3.03339 12.4875 3.07357 12.7803 3.17969C12.8644 3.21021 12.9472 3.24431 13.0283 3.28223C13.5057 3.50556 13.89 3.89002 14.6572 4.65723L17.2422 7.24219C18.1093 8.10928 18.5431 8.54341 18.7715 9.09473C18.9064 9.42038 18.9608 9.76758 18.9834 10.25H15C14.036 10.25 13.3883 10.2485 12.9053 10.1836C12.4439 10.1215 12.2465 10.0141 12.1162 9.88379C11.9859 9.75348 11.8785 9.55612 11.8164 9.09473C11.7515 8.61169 11.75 7.96401 11.75 7V3.01562Z" fill="black"/>
</svg>
