<svg width="24" height="24" viewBox="0 0 24 24" fill="none" xmlns="http://www.w3.org/2000/svg">
<path d="M5.17347 5.17347C8.07143 2.27551 12.7699 2.27551 15.6679 5.17347C18.2064 7.71201 18.521 11.632 16.6121 14.5132L20.5653 18.4664C21.1449 19.046 21.1449 19.9857 20.5653 20.5653C19.9857 21.1449 19.046 21.1449 18.4664 20.5653L14.5132 16.6121C11.632 18.521 7.71201 18.2064 5.17347 15.6679C2.27551 12.7699 2.27551 8.07143 5.17347 5.17347ZM6.92254 6.92254C4.99057 8.85451 4.99057 11.9869 6.92254 13.9188C8.85451 15.8508 11.9869 15.8508 13.9188 13.9188C15.8508 11.9869 15.8508 8.85451 13.9188 6.92254C11.9869 4.99057 8.85451 4.99057 6.92254 6.92254Z" fill="black"/>
</svg>
