<svg width="24" height="24" viewBox="0 0 24 24" fill="none" xmlns="http://www.w3.org/2000/svg">
<path d="M12 3C16.9706 3 21 7.02944 21 12C21 16.9706 16.9706 21 12 21C7.02944 21 3 16.9706 3 12C3 7.02944 7.02944 3 12 3ZM12 15.0996C11.0151 15.0996 10.0398 15.294 9.12988 15.6709C8.21994 16.0478 7.39273 16.6004 6.69629 17.2969C7.39273 17.9933 8.21994 18.5459 9.12988 18.9229C10.0398 19.2997 11.0151 19.4932 12 19.4932C12.9849 19.4932 13.9602 19.2997 14.8701 18.9229C15.7801 18.5459 16.6073 17.9933 17.3037 17.2969C16.6073 16.6004 15.7801 16.0478 14.8701 15.6709C13.9602 15.294 12.9849 15.0996 12 15.0996ZM12 7C10.3431 7 9 8.34315 9 10C9 11.6569 10.3431 13 12 13C13.6569 13 15 11.6569 15 10C15 8.34315 13.6569 7 12 7Z" fill="black"/>
</svg>
