<svg width="24" height="24" viewBox="0 0 24 24" fill="none" xmlns="http://www.w3.org/2000/svg">
<path d="M10.447 3.50016C11.7353 3.51513 12.7665 4.57253 12.7517 5.86049L12.7478 6.18568L13.9711 4.99005C14.8908 4.09091 16.365 4.10697 17.265 5.02586C18.1668 5.9467 18.1507 7.42524 17.2292 8.32628L17.0401 8.51118H18.6706C19.9575 8.51124 20.9999 9.55522 21 10.8419C21 12.1286 19.9576 13.1725 18.6706 13.1726H18.3268L19.5417 14.3864C20.4532 15.2974 20.4531 16.7756 19.5417 17.6865C18.6317 18.5959 17.1574 18.5959 16.2474 17.6865L15.9837 17.4232L15.9772 19.1755C15.9723 20.4637 14.9246 21.505 13.6361 21.5C12.3478 21.4949 11.3082 20.4456 11.3132 19.1576L11.3145 18.818L10.0918 20.0312C9.17859 20.9372 7.70456 20.9318 6.79791 20.0192C5.88977 19.105 5.89479 17.6267 6.80963 16.7191L7.06907 16.4616L5.31191 16.4483C4.02486 16.4383 2.99015 15.3861 3.00007 14.0993C3.01009 12.8128 4.06054 11.7768 5.34739 11.7865L5.6817 11.7888L4.48314 10.5737C3.57813 9.65601 3.58856 8.17757 4.5069 7.27323C5.42349 6.3707 6.8978 6.38157 7.80116 7.29732L8.06743 7.56718L8.08794 5.80613C8.1031 4.51826 9.15882 3.48524 10.447 3.50016Z" fill="black"/>
</svg>
