<svg width="24" height="24" viewBox="0 0 24 24" fill="none" xmlns="http://www.w3.org/2000/svg">
<path d="M12 4C16.9706 4 21 7.35786 21 11.5C21 15.6421 16.9706 19 12 19C11.4741 19 10.9592 18.9598 10.458 18.8877C10.3146 18.9675 10.1696 19.0449 10.0215 19.1172C8.72065 19.7524 7.36807 20.0333 6.04395 19.9971C4.91095 19.966 4.34398 19.9505 4.08008 19.4189C3.81624 18.8874 4.21918 18.2935 5.02441 17.1064C5.14346 16.931 5.25927 16.7533 5.37305 16.5742C3.89977 15.2388 3 13.4571 3 11.5C3 7.35786 7.02944 4 12 4Z" fill="black"/>
</svg>
