<svg width="24" height="24" viewBox="0 0 24 24" fill="none" xmlns="http://www.w3.org/2000/svg">
<path d="M12 3C16.9706 3 21 7.02944 21 12C21 16.9706 16.9706 21 12 21C7.02944 21 3 16.9706 3 12C3 7.02944 7.02944 3 12 3ZM16.1533 7.84668C15.5281 7.2215 14.3923 7.52049 12.1211 8.11816L11.7314 8.2207C10.3758 8.57744 9.69741 8.75572 9.22656 9.22656C8.75572 9.69741 8.57744 10.3758 8.2207 11.7314L8.11816 12.1211C7.52049 14.3923 7.22151 15.5281 7.84668 16.1533C8.47185 16.7785 9.60774 16.4795 11.8789 15.8818L12.2686 15.7793C13.6242 15.4226 14.3026 15.2443 14.7734 14.7734C15.2443 14.3026 15.4226 13.6242 15.7793 12.2686L15.8818 11.8789C16.4795 9.60774 16.7785 8.47185 16.1533 7.84668ZM12 10.5C12.8284 10.5 13.5 11.1716 13.5 12C13.5 12.8284 12.8284 13.5 12 13.5C11.1716 13.5 10.5 12.8284 10.5 12C10.5 11.1716 11.1716 10.5 12 10.5Z" fill="black"/>
</svg>
