<svg width="24" height="24" viewBox="0 0 24 24" fill="none" xmlns="http://www.w3.org/2000/svg">
<path d="M7 13C7.92997 13 8.39487 13.0003 8.77637 13.1025C9.81164 13.3799 10.6201 14.1884 10.8975 15.2236C10.9997 15.6051 11 16.07 11 17C11 17.93 10.9997 18.3949 10.8975 18.7764C10.6201 19.8116 9.81164 20.6201 8.77637 20.8975C8.39487 20.9997 7.92997 21 7 21C6.07003 21 5.60513 20.9997 5.22363 20.8975C4.18836 20.6201 3.37994 19.8116 3.10254 18.7764C3.00032 18.3949 3 17.93 3 17C3 16.07 3.00032 15.6051 3.10254 15.2236C3.37994 14.1884 4.18836 13.3799 5.22363 13.1025C5.60513 13.0003 6.07003 13 7 13ZM14.25 18.5C14.9404 18.5 15.5 19.0596 15.5 19.75C15.5 20.4404 14.9404 21 14.25 21C13.5596 21 13 20.4404 13 19.75C13 19.0596 13.5596 18.5 14.25 18.5ZM19.75 18.5C20.4404 18.5 21 19.0596 21 19.75C21 20.4404 20.4404 21 19.75 21C19.0596 21 18.5 20.4404 18.5 19.75C18.5 19.0596 19.0596 18.5 19.75 18.5ZM17 15.75C17.6904 15.75 18.25 16.3096 18.25 17C18.25 17.6904 17.6904 18.25 17 18.25C16.3096 18.25 15.75 17.6904 15.75 17C15.75 16.3096 16.3096 15.75 17 15.75ZM14.25 13C14.9404 13 15.5 13.5596 15.5 14.25C15.5 14.9404 14.9404 15.5 14.25 15.5C13.5596 15.5 13 14.9404 13 14.25C13 13.5596 13.5596 13 14.25 13ZM19.75 13C20.4404 13 21 13.5596 21 14.25C21 14.9404 20.4404 15.5 19.75 15.5C19.0596 15.5 18.5 14.9404 18.5 14.25C18.5 13.5596 19.0596 13 19.75 13ZM7 3C7.92997 3 8.39487 3.00032 8.77637 3.10254C9.81164 3.37994 10.6201 4.18836 10.8975 5.22363C10.9997 5.60513 11 6.07003 11 7C11 7.92997 10.9997 8.39487 10.8975 8.77637C10.6201 9.81164 9.81164 10.6201 8.77637 10.8975C8.39487 10.9997 7.92997 11 7 11C6.07003 11 5.60513 10.9997 5.22363 10.8975C4.18836 10.6201 3.37994 9.81164 3.10254 8.77637C3.00032 8.39487 3 7.92997 3 7C3 6.07003 3.00032 5.60513 3.10254 5.22363C3.37994 4.18836 4.18836 3.37994 5.22363 3.10254C5.60513 3.00032 6.07003 3 7 3ZM17 3C17.93 3 18.3949 3.00032 18.7764 3.10254C19.8116 3.37994 20.6201 4.18836 20.8975 5.22363C20.9997 5.60513 21 6.07003 21 7C21 7.92997 20.9997 8.39487 20.8975 8.77637C20.6201 9.81164 19.8116 10.6201 18.7764 10.8975C18.3949 10.9997 17.93 11 17 11C16.07 11 15.6051 10.9997 15.2236 10.8975C14.1884 10.6201 13.3799 9.81164 13.1025 8.77637C13.0003 8.39487 13 7.92997 13 7C13 6.07003 13.0003 5.60513 13.1025 5.22363C13.3799 4.18836 14.1884 3.37994 15.2236 3.10254C15.6051 3.00032 16.07 3 17 3Z" fill="black"/>
</svg>
